<?xml version="1.0" encoding="UTF-8" standalone="no"?>
<!-- Created with Inkscape (http://www.inkscape.org/) -->

<svg
   xmlns:dc="http://purl.org/dc/elements/1.1/"
   xmlns:cc="http://creativecommons.org/ns#"
   xmlns:rdf="http://www.w3.org/1999/02/22-rdf-syntax-ns#"
   xmlns:svg="http://www.w3.org/2000/svg"
   xmlns="http://www.w3.org/2000/svg"
   xmlns:sodipodi="http://sodipodi.sourceforge.net/DTD/sodipodi-0.dtd"
   xmlns:inkscape="http://www.inkscape.org/namespaces/inkscape"
   width="744.09448819"
   height="1052.3622047"
   id="svg3227"
   version="1.1"
   inkscape:version="0.48.4 r"
   sodipodi:docname="New document 11">
  <defs
     id="defs3229" />
  <sodipodi:namedview
     id="base"
     pagecolor="#ffffff"
     bordercolor="#666666"
     borderopacity="1.0"
     inkscape:pageopacity="0.0"
     inkscape:pageshadow="2"
     inkscape:zoom="0.35"
     inkscape:cx="375"
     inkscape:cy="520"
     inkscape:document-units="px"
     inkscape:current-layer="layer1"
     showgrid="false"
     inkscape:window-width="467"
     inkscape:window-height="419"
     inkscape:window-x="150"
     inkscape:window-y="150"
     inkscape:window-maximized="0" />
  <metadata
     id="metadata3232">
    <rdf:RDF>
      <cc:Work
         rdf:about="">
        <dc:format>image/svg+xml</dc:format>
        <dc:type
           rdf:resource="http://purl.org/dc/dcmitype/StillImage" />
        <dc:title></dc:title>
      </cc:Work>
    </rdf:RDF>
  </metadata>
  <g
     inkscape:label="Layer 1"
     inkscape:groupmode="layer"
     id="layer1">
    <path
       style="fill:#000000;stroke:#000000;stroke-width:1px;stroke-linecap:butt;stroke-linejoin:miter;stroke-opacity:1"
       d="m 380,238.07647 c -3.80952,-2.85714 -14.28571,-4.76191 -11.42857,-8.57143 2.85714,-3.80952 15.68775,10.70102 11.42857,8.57143 -8.0362,-4.0181 -14.33347,-11.44449 -22.85714,-14.28572 -1.80702,-0.60233 -3.90727,0.60234 -5.71429,0 -2.0203,-0.67343 -3.64828,-2.34064 -5.71428,-2.85714 -2.77184,-0.69296 -5.71429,0 -8.57143,0 -6.66667,0 -13.33334,0 -20,0 -1.90476,0 -3.8664,-0.46197 -5.71429,0 -2.066,0.5165 -3.80952,1.90476 -5.71428,2.85714 -3.80953,1.90477 -7.61905,3.80953 -11.42858,5.71429 -3.80952,1.90476 -7.47402,4.13247 -11.42857,5.71429 -2.79628,1.11851 -6.16207,1.05012 -8.57143,2.85714 -1.70367,1.27775 -1.35129,4.20844 -2.85714,5.71428 -1.50585,1.50585 -4.05136,1.5268 -5.71428,2.85715 -4.20692,3.36553 -7.11859,8.19608 -11.42858,11.42857 -2.74708,2.06031 -6.14332,3.28618 -8.57142,5.71428 -1.50585,1.50585 -1.57939,4.01062 -2.85715,5.71429 -3.23249,4.30998 -8.19608,7.11859 -11.42857,11.42857 -2.5555,3.40734 -3.15878,8.02123 -5.71428,11.42857 -1.90477,1.90476 -3.80953,3.80953 -5.71429,5.71429 0,1.90476 1.05657,4.12943 0,5.71428 -1.18128,1.77193 -4.43653,1.15348 -5.71429,2.85715 -10.04631,1.24805 -0.67896,8.1613 -2.85714,11.42857 -1.49422,2.24133 -4.71385,3.21321 -5.71428,5.71428 -1.06112,2.65279 0.46971,5.75316 0,8.57143 -0.88265,5.29587 -3.38265,9.62243 -5.71429,14.28572 -0.95238,1.90476 -2.34064,3.64828 -2.85714,5.71428 -0.46198,1.84789 0.37355,3.84652 0,5.71429 -0.59064,2.95321 -2.2665,5.61822 -2.85715,8.57143 -0.7471,3.73554 0,7.61904 0,11.42857 0,5.71428 0,11.42857 0,17.14286 0,4.7619 0,9.5238 0,14.28571 0,2.85714 0,5.71429 0,8.57143 0,0.95238 -0.30117,1.95363 0,2.85714 0.67344,2.02031 1.90477,3.80952 2.85715,5.71429 0.95238,1.90476 1.67586,3.94236 2.85714,5.71428 2.85714,4.28572 5.71429,2.85715 8.57143,8.57143 0.85183,1.70367 -1.05657,4.12943 0,5.71429 1.18128,1.77192 4.20844,1.35129 5.71428,2.85714 1.50585,1.50585 1.67586,3.94236 2.85715,5.71429 0.74711,1.12066 2.11003,1.73647 2.85714,2.85714 1.18128,1.77192 0.95238,4.7619 2.85714,5.71428 2.55551,1.27776 6.01593,-1.27775 8.57143,0 1.15999,2.31997 2.80563,7.1171 5.71429,8.57143 28.42785,9.47595 -5.38748,-4.04061 11.42857,8.57143 2.40935,1.80702 5.87769,1.51027 8.57143,2.85714 1.20467,0.60234 1.73648,2.11004 2.85714,2.85715 3.54385,2.36256 8.02123,3.15878 11.42857,5.71428 2.15499,1.61625 3.30493,4.50961 5.71429,5.71429 1.70367,0.85183 3.86639,-0.46197 5.71428,0 2.06601,0.5165 3.69398,2.18371 5.71429,2.85714 3.72526,1.24175 7.70331,1.61539 11.42857,2.85714 2.02031,0.67344 3.64828,2.34065 5.71429,2.85715 1.84789,0.46197 3.80952,0 5.71428,0 0.95238,0 1.97288,-0.35371 2.85714,0 3.95455,1.58182 7.47403,4.13246 11.42858,5.71428 0.88426,0.35371 1.90476,0 2.85714,0 2.85714,0 5.71428,0 8.57143,0 11.42857,0 22.85714,0 34.28571,0 6.66667,0 13.33333,0 20,0 2.85714,0 5.75316,0.46971 8.57143,0 2.97072,-0.49512 5.64966,-2.1267 8.57143,-2.85714 4.71121,-1.1778 9.47831,-2.17037 14.28571,-2.85714 1.88562,-0.26938 4.08097,0.97999 5.71429,0 16.59528,-9.95717 -0.32588,-8.47832 20,-14.28572 2.74721,-0.78491 6.01592,1.27776 8.57143,0 3.61403,-1.80701 5.28345,-6.22287 8.57143,-8.57143 3.46583,-2.47559 7.61904,-3.80952 11.42857,-5.71428 1.90476,-0.95238 4.20844,-1.3513 5.71428,-2.85714 2.42811,-2.42811 3.28618,-6.14333 5.71429,-8.57143 1.50585,-1.50585 4.20844,-1.3513 5.71428,-2.85715 1.50585,-1.50584 1.90477,-3.80952 2.85715,-5.71428 1.90476,-3.80953 3.35172,-7.88472 5.71428,-11.42857 1.49422,-2.24133 4.71386,-3.21321 5.71429,-5.71429 1.06111,-2.65279 -0.56033,-5.76977 0,-8.57143 0.41765,-2.08823 2.43949,-3.62605 2.85714,-5.71428 1.12067,-5.60332 -0.93942,-11.50632 0,-17.14286 3.76065,-22.5639 2.85714,5.14326 2.85714,-17.14286 0,-6.66666 0,-13.33333 0,-20 0,-1.90476 0.46198,-3.86639 0,-5.71428 -0.5165,-2.06601 -2.34064,-3.64828 -2.85714,-5.71429 -0.46197,-1.84789 0.46197,-3.86639 0,-5.71428 -0.5165,-2.06601 -2.06623,-3.73702 -2.85714,-5.71429 -2.32318,-5.80795 -2.36403,-9.26033 -5.71429,-14.28571 -8.03612,-12.0542 4.90336,15.521 -8.57143,-11.42858 -0.42591,-0.85183 0.67344,-2.1837 0,-2.85714 -1.50584,-1.50585 -4.20843,-1.3513 -5.71428,-2.85714 -0.18309,-0.18309 -5.35948,-10.89637 -5.71429,-11.42857 -0.74711,-1.12067 -2.11003,-1.73648 -2.85714,-2.85715 -1.18128,-1.77192 -1.67586,-3.94236 -2.85714,-5.71428 -2.42489,-3.63733 -8.78816,-7.90801 -11.42857,-11.42857 -3.46972,-4.62629 -1.34483,-5.65846 -5.71429,-8.57143 -1.77192,-1.18128 -4.20844,-1.3513 -5.71429,-2.85714 -0.67343,-0.67344 0.42592,-2.00531 0,-2.85715 -0.60233,-1.20467 -1.90476,-1.90476 -2.85714,-2.85714 -0.95238,-0.95238 -1.65246,-2.2548 -2.85714,-2.85714 -0.85184,-0.42592 -2.18371,0.67343 -2.85714,0 -0.67344,-0.67344 0.67343,-2.18371 0,-2.85715 -0.67344,-0.67343 -2.00531,0.42592 -2.85715,0 -2.40935,-1.20467 -3.30493,-4.5096 -5.71428,-5.71428 -0.85184,-0.42592 -2.00531,0.42592 -2.85715,0 -1.20467,-0.60234 -1.65246,-2.25481 -2.85714,-2.85714 -0.85183,-0.42592 -2.18371,0.67343 -2.85714,0 -0.67344,-0.67344 0.67343,-2.18371 0,-2.85715 -1.42857,-1.42857 -7.14286,1.42857 -8.57143,0 -0.67344,-0.67343 -0.95238,-2.85714 0,-2.85714 0.95238,0 0.95238,2.85714 0,2.85714 -1.34687,0 -2.2548,-1.65246 -2.85714,-2.85714 0,-7.61905 0.95238,0.95238 -2.85715,-2.85714 -0.67343,-0.67344 0.67344,-2.18371 0,-2.85715 -0.67343,-0.67343 -2.1837,0.67344 -2.85714,0 -0.67343,-0.67343 0.67344,-2.1837 0,-2.85714 -2.8185,-2.81851 -5.71428,5.85451 -5.71428,-2.85714"
       id="path3237"
       inkscape:connector-curvature="0" />
    <path
       style="fill:#000000;stroke:#000000;stroke-width:1px;stroke-linecap:butt;stroke-linejoin:miter;stroke-opacity:1"
       d="m 174.28571,626.6479 c 20,0 40,0 60,0 5.71429,0 11.45693,-0.5686 17.14286,0 3.90728,0.39072 7.61905,1.90476 11.42857,2.85714 5.71429,0.95238 11.37354,2.33266 17.14286,2.85714 4.74235,0.43113 9.54026,-0.39545 14.28571,0 6.71109,0.55926 13.33334,1.90476 20,2.85715 50.27054,7.1815 -12.5294,-1.67059 42.85715,5.71428 6.67527,0.89004 13.28056,2.40918 20,2.85714 7.60217,0.50682 15.25497,-0.50681 22.85714,0 13.43887,0.89593 26.57782,4.59578 40,5.71429 4.74546,0.39545 9.54337,-0.43112 14.28571,0 41.76223,3.79657 -7.37479,2.85714 34.28572,2.85714 23.80952,0 47.61905,0 71.42857,0 2.85714,0 5.71429,0 8.57143,0 0.95238,0 2.18371,0.67344 2.85714,0 0.67344,-0.67343 0,-1.90476 0,-2.85714"
       id="path3245"
       inkscape:connector-curvature="0" />
    <path
       style="fill:#000000;stroke:#000000;stroke-width:1px;stroke-linecap:butt;stroke-linejoin:miter;stroke-opacity:1"
       d="m 374.28571,532.36218 c -4.02056,10.18046 -2.85714,20.79658 -2.85714,31.42857 0,2.85715 0.46971,5.75316 0,8.57143 -4.36299,26.17794 -2.85714,-15.13574 -2.85714,22.85715 0,37.3645 0.92394,-14.95374 -2.85714,22.85714 -0.5686,5.68593 0.47454,11.44831 0,17.14286 -0.4811,5.77309 -2.33266,11.37354 -2.85715,17.14285 -0.43112,4.74235 0.39546,9.54026 0,14.28572 -3.7021,44.42528 -1.72792,-2.72081 -5.71428,37.14285 -0.37906,3.79062 0,7.61905 0,11.42858 0,5.71428 0,11.42857 0,17.14285 0,11.42857 0,22.85715 0,34.28572 0,18.09523 0,36.19047 0,54.28571 0,5.71429 0,11.42857 0,17.14286 0,0.95238 0.95238,2.85714 0,2.85714 -0.95238,0 0,-1.90476 0,-2.85714"
       id="path3247"
       inkscape:connector-curvature="0" />
    <path
       style="fill:#000000;stroke:#000000;stroke-width:1px;stroke-linecap:butt;stroke-linejoin:miter;stroke-opacity:1"
       d="m 354.28571,812.36218 c -0.96787,0.72591 -12.60946,10.5219 -17.14285,11.42857 -2.80166,0.56034 -5.76977,-0.56033 -8.57143,0 -11.49749,2.2995 -1.31273,2.08494 -8.57143,5.71429 -2.69374,1.34687 -5.77514,1.73863 -8.57143,2.85714 -5.91133,2.36453 -11.23153,6.2069 -17.14286,8.57143 -2.79628,1.11852 -5.98892,1.30764 -8.57142,2.85714 -2.30987,1.38592 -3.30494,4.50961 -5.71429,5.71429 -1.70367,0.85184 -3.94576,-0.70741 -5.71429,0 -5.12088,2.04835 -8.73892,7.18473 -14.28571,8.57143 -1.84789,0.46197 -4.12943,-1.05657 -5.71429,0 -1.77192,1.18128 -1.35129,4.20844 -2.85714,5.71428 -7.21686,7.21687 -3.29367,1.0979 -8.57143,2.85715 -20.69547,6.89849 4.5046,-0.82373 -8.57143,5.71428 -1.70367,0.85184 -4.36741,-1.34687 -5.71428,0 -0.67344,0.67344 0.67343,2.18371 0,2.85715 -0.0919,0.0919 -7.8785,0 -8.57143,0"
       id="path3249"
       inkscape:connector-curvature="0" />
    <path
       style="fill:#000000;stroke:#000000;stroke-width:1px;stroke-linecap:butt;stroke-linejoin:miter;stroke-opacity:1"
       d="m 360,786.6479 c 29.83289,49.72147 -4.99639,-5.70948 14.28571,20 1.27776,1.70367 1.3513,4.20844 2.85715,5.71428 1.50584,1.50585 4.43653,1.15347 5.71428,2.85715 1.80702,2.40935 0.97576,6.21969 2.85715,8.57142 2.14511,2.6814 6.14332,3.28619 8.57142,5.71429 3.36718,3.36717 5.52294,7.77037 8.57143,11.42857 1.72449,2.06939 4.09804,3.55929 5.71429,5.71429 1.27775,1.70367 1.57939,4.01061 2.85714,5.71428 1.61625,2.15499 3.80953,3.80953 5.71429,5.71429 1.90476,1.90476 3.80952,3.80952 5.71428,5.71428 2.29443,2.29444 11.81035,12.63548 14.28572,14.28572 0.79243,0.52828 2.0053,-0.42592 2.85714,0 2.40935,1.20468 3.30493,4.50961 5.71429,5.71428 0.85183,0.42592 2.1837,-0.67343 2.85714,0 0.67343,0.67344 -0.67344,2.18371 0,2.85715 4.70588,4.70588 1.0084,-4.70589 5.71428,0 0.67344,0.67343 -0.67343,2.1837 0,2.85714 0.67344,0.67343 1.90477,0 2.85715,0 4.7619,0 9.52381,0 14.28571,0"
       id="path3251"
       inkscape:connector-curvature="0" />
  </g>
</svg>
